<svg xmlns="http://www.w3.org/2000/svg" width="832" height="589.22" xmlns:v="https://vecta.io/nano"><style><![CDATA[.B{font-weight:bold}.C{font-family:Times New Roman}.D{font-size:7.97px}.E{font-family:CMSY8}.F{stroke:#cfd8dc}.G{stroke-miterlimit:10}.H{stroke-width:.797}]]></style><g transform="matrix(1.3333 0 0 -1.3333 297.23 963.25)"><path fill="#263238" d="M-222.92 722.44h624V280.53h-624z"/><g transform="matrix(1.2025 0 0 1.2025 42.71 -59.235)" fill="#cfd8dc"><g class="C"><text transform="scale(1 -1)" x="23.37" y="-634.692" class="D"><tspan x="23.37 27.498 33.253 38.569 43.438 51.098" y="-634.692">TABLEI</tspan><tspan x="-58.318" y="-622.737">C</tspan></text><text transform="scale(1 -1)" x="-52.604" y="-622.737" font-size="6.376"><tspan x="-52.604 -47.605 -41.542 -38.188 -33.189 -28.541 -26.022 -22.088 -17.089 -10.101 -5.102 0.828 5.571 9.856 13.554 18.553 22.487 26.778 31.063 36.993 43.413 45.932 50.217 57.205 62.204 64.722 68.656 71.175 76.174 83.162 88.161 93.16 100.148 102.667 108.73 115.725 120.462 124.753 128.452" y="-622.737">OMPARISONOFDATASETSWITHVISIONANDIMUDATA</tspan></text><text transform="scale(1 -1)" x="133.448" y="-622.737" class="D"><tspan x="133.448" y="-622.737">.</tspan></text></g><path d="M-210.92 610.28h498.96" class="F G H"/><text transform="scale(1 -1)" x="-204.943" y="-598.184" class="C D"><tspan x="-204.943 -200.958 -197.419 -195.204 -191.665 -188.565 -185.026 -136.297 -132.312 -128.773 -125.234 -108.401 -104.863 -101.196 -97.211 -94.996 -92.342 -88.357 -84.372 -62.43 -58.891 -55.352 -52.698 -50.044 -47.829 -44.29 -22.125 -18.586 -15.048 -8.847 -5.308 -2.654 0.885 52.188 54.842 61.928 67.682 120.835 123.05 125.266 131.467" y="-598.184">datasetyearenviron.carriercamerasIMUstime</tspan><tspan x="120.838 123.938 127.923 131.908" y="-589.217">sync</tspan><tspan x="155.471 159.456 162.11 166.095 170.08 174.065 180.84 183.055 185.709 189.694 191.91 243.963 247.063 249.279 252.818 255.033 258.134 260.349 264.334 266.988 270.973 274.959" y="-598.184">groundtruthstats/props</tspan></text><path d="M-210.92 583.41h498.96" stroke-width=".498" class="F G"/><g class="D"><g class="C"><text transform="scale(1 -1)" x="-204.943" y="-571.459"><tspan x="-204.943 -199.189 -196.973 -194.757 -192.542 -187.537 -181.782 -177.797 -173.812 -167.611 -164.073" y="-571.459">KittiOdome-</tspan><tspan x="-204.943 -202.728 -200.073 -193.299 -190.645 -186.66" y="-562.493">try[9]</tspan><tspan x="-136.295 -132.31 -128.325 -124.34 -108.4 -104.415 -100.43 -98.214 -94.229 -90.244 -86.259 -83.605 -62.428 -58.89 -55.351 -22.124" y="-571.459">2013outdoorscar1</tspan></text><text transform="scale(1 -1)" x="-15.352" y="-571.459"><tspan x="-15.352 -12.252 -9.598 -6.059 -2.664 0.875" y="-571.459">stereo</tspan></text><text transform="scale(1 -1)" x="7.649" y="-571.459"><tspan x="7.649 12.965 18.719" y="-571.459">RGB</tspan><tspan x="-22.127 -18.142 -14.157 -10.172 -6.187 -2.202 1.783 5.768 9.753 13.738" y="-562.493">2x1392x512</tspan><tspan x="-22.127 -14.787 -10.802 -6.817 -1.062 2.476 7.259 14.033 17.133 19.349 22.888 25.542 29.081" y="-553.526">@10Hz,1stereo</tspan><tspan x="-22.127 -18.142 -15.488 -11.949 -5.175 -1.19 2.795 6.78 10.765 14.75 18.735 22.721 26.706 30.691" y="-544.56">gray2x1392x512</tspan><tspan x="-22.127 -14.787 -10.802 -6.817 -1.062" y="-535.594">@10Hz</tspan><tspan x="52.19 57.625 63.38 68.25 75.47 80.308 87.968 91.953 95.938 99.923" y="-571.459">OXTSRT3003</tspan><tspan x="52.19 56.175 58.829 62.368 66.353 68.568 74.458 77.997 81.536 85.074 87.29 91.275 95.26 97.914" y="-562.493">3-axisacc/gyro</tspan><tspan x="52.19 59.53 63.515 67.5 73.255" y="-553.526">@10Hz</tspan><tspan x="120.838 123.938 155.468 160.903 166.658 171.528 178.749 183.586 191.246 195.231 199.216 203.201 209.975 213.96 217.945 221.046" y="-571.459">swOXTSRT3003pose</tspan><tspan x="155.471 162.811 166.796 170.781 176.536 180.074 184.857 188.395 191.934 195.473" y="-562.493">@10Hz,acc.</tspan></text></g><text transform="scale(1 -1)" x="200.255" y="-562.493" font-family="CMMI8"><tspan x="200.255" y="-562.493">&lt;</tspan></text><g class="C"><text transform="scale(1 -1)" x="206.841" y="-562.493"><tspan x="206.841 210.826 214.811 218.35" y="-562.493">10cm</tspan><tspan x="243.961 247.946 254.72 257.821 261.36 265.345 268.445" y="-571.459">22seqs,</tspan><tspan x="243.961 247.946 251.931 253.923 259.24 263.225" y="-562.493">39.2km</tspan><tspan x="-204.943 -197.858 -194.319 -192.103 -188.565 -184.619" y="-523.041">Malaga</tspan><tspan x="-204.943 -199.189 -196.535 -192.55 -189.011 -182.236 -179.582 -175.597 -171.612" y="-514.074">Urban[10]</tspan><tspan x="-136.295 -132.31 -128.325 -124.34 -108.4 -104.415 -100.43 -98.214 -94.229 -90.244 -86.259 -83.605 -62.428 -58.89 -55.351 -22.124" y="-523.041">2014outdoorscar1</tspan></text><text transform="scale(1 -1)" x="-15.352" y="-523.041"><tspan x="-15.352 -12.252 -9.598 -6.059 -2.664 0.875" y="-523.041" class="B">stereo</tspan></text><text transform="scale(1 -1)" x="7.649" y="-523.041"><tspan x="7.649 12.965 18.719" y="-523.041">RGB</tspan><tspan x="-22.127 -18.142 -14.157 -10.172 -6.187 -2.202 1.783 5.768 9.753 13.738" y="-514.074">2x1024x768</tspan><tspan x="-22.127 -14.787 -10.802 -6.817 -1.062" y="-505.108">@20Hz</tspan><tspan x="52.19 56.175 58.829 62.368 66.353 68.568 74.458 77.997 81.536 85.074 87.29 91.275 95.26 97.914" y="-523.041">3-axisacc/gyro</tspan><tspan x="52.19 59.53 63.515 67.5 71.485 77.24" y="-514.074">@100Hz</tspan><tspan x="120.838 123.938 155.468 161.222 165.654 172.875 176.86 180.845 186.735 194.075 198.06 203.815 207.353 212.135 214.351 218.137" y="-523.041">swGPSpos@1Hz,low</tspan><tspan x="155.471 159.01 162.548" y="-514.074">acc</tspan><tspan x="243.961 247.946 254.72 257.821 261.806 265.791 268.891 272.43 276.415 279.515" y="-523.041">15subseqs,</tspan><tspan x="243.961 247.946 251.931 253.923 259.24 263.225" y="-514.074">36.8km</tspan><tspan x="-204.943 -199.189 -192.103 -189.888 -186.349" y="-492.555">UMich</tspan><tspan x="-204.943 -199.189 -193.873 -189.736 -182.077 -179.423 -175.438 -171.453" y="-483.589">NCLT[11]</tspan><tspan x="-136.295 -132.31 -128.325 -124.34" y="-492.555">2015</tspan></text><text transform="scale(1 -1)" x="-108.399" y="-492.555" class="B"><tspan x="-108.399 -106.184 -101.752" y="-492.555">in-</tspan><tspan x="-108.399 -106.184 -102.198 -97.767 -95.113 -90.682 -86.697 -82.712 -79.173" y="-483.589">/outdoors</tspan></text><text transform="scale(1 -1)" x="-62.429" y="-492.555"><tspan x="-62.429 -57.998 -54.579 -50.594 -44.919 -41.38 -22.124 -15.35 -10.034 -4.279 3.826 6.48 10.465 16.666 20.651 22.867" y="-492.555">Segway6RGB(omni)</tspan><tspan x="-22.127 -18.142 -14.157 -10.172 -6.187 -2.202 1.783 5.768 9.753 16.528 23.868 27.853 33.608" y="-483.589">1600x1200@5Hz</tspan><tspan x="52.19 56.175 58.829 62.368 66.353 68.568 74.458 77.997 81.536 85.074 87.29 91.275 95.26 97.914" y="-492.555">3-axisacc/gyro</tspan><tspan x="52.19 59.53 63.515 67.5 71.485 77.24" y="-483.589">@100Hz</tspan><tspan x="120.838 123.938 155.468 158.122 162.107 165.207 168.746 175.521 181.275 185.706 190.138 192.354 195.008 202.093 207.847 210.063 212.279 215.817 218.918 222.457" y="-492.555">swfusedGPS/IMU/laser</tspan><tspan x="155.471 159.456 163.441 166.541 172.869 180.21 184.195 188.18 192.165 197.92 201.458" y="-483.589">pose@150Hz,</tspan><tspan x="155.471 159.01 162.548" y="-474.622">acc</tspan></text></g><text transform="scale(1 -1)" x="166.087" y="-474.622" class="E"><tspan x="166.087" y="-474.622">≈</tspan></text><g class="C"><text transform="scale(1 -1)" x="172.673" y="-474.622"><tspan x="172.673 176.658 180.643 184.182" y="-474.622">10cm</tspan><tspan x="243.961 247.946 254.72 257.821 261.36 265.345 268.445" y="-492.555">27seqs,</tspan><tspan x="243.961 247.946 251.931 255.916 257.908 263.225 267.21" y="-483.589">147.3km</tspan><tspan x="-204.943 -200.073 -196.088 -190.772 -186.787 -178.682 -171.596 -166.918 -158.374 -155.72 -151.735 -136.297 -132.312 -128.327 -124.342 -108.401 -106.186 -102.201 -98.216 -94.231 -90.246 -87.591 -62.43 -55.344 -50.666 -22.125" y="-462.07">EuRoCMAV[8]2016indoorsMAV1</tspan></text><text transform="scale(1 -1)" x="-15.352" y="-462.07"><tspan x="-15.352 -12.252 -9.598 -6.059 -2.664 0.875" y="-462.07" class="B">stereo</tspan></text><text transform="scale(1 -1)" x="7.649" y="-462.07"><tspan x="7.649 11.634 14.288 17.827" y="-462.07">gray</tspan><tspan x="-22.127 -18.142 -14.157 -10.172 -6.187 -2.202 1.783 5.768 9.753" y="-453.103">2x752x480</tspan><tspan x="-22.127 -14.787 -10.802 -6.817 -1.062" y="-444.137">@20Hz</tspan><tspan x="52.19 57.944 63.699 66.353 70.784 74.769 78.754 82.739 86.724 93.499 97.484" y="-462.07">ADIS164883-</tspan><tspan x="52.19 55.729 59.714 61.929 67.819 71.358 74.897 78.435 80.651 84.636 88.621 91.275" y="-453.103">axisacc/gyro</tspan><tspan x="52.19 59.53 63.515 67.5 71.485 77.24" y="-444.137">@200Hz</tspan></text><text transform="scale(1 -1)" x="120.838" y="-462.07"><tspan x="120.838 125.269" y="-462.07" class="B">hw</tspan></text><text transform="scale(1 -1)" x="155.471" y="-462.07"><tspan x="155.471 157.686 161.225 164.326 167.864 173.308 175.524 178.178 181.716 185.255 189.16 192.699 198.143 202.128 206.113" y="-462.07">lasertrackerpos</tspan><tspan x="155.471 162.811 166.796 170.781 176.536 180.074" y="-453.103">@20Hz,</tspan></text><text transform="scale(1 -1)" x="184.856" y="-453.103"><tspan x="184.856 191.495 195.48 198.134 200.35 204.335" y="-453.103" class="B">motion</tspan><tspan x="155.471 159.01 162.995 167.426 170.08 174.511 177.907 184.434 188.865 192.851 195.951" y="-444.137" class="B">capturepose</tspan><tspan x="155.471 162.883 166.868 170.853 174.838 181.039" y="-435.171"><tspan class="B">@100Hz</tspan></tspan></text><text transform="scale(1 -1)" x="184.577" y="-435.171"><tspan x="184.577 189.359 192.898 196.436" y="-435.171">,acc</tspan></text></g><text transform="scale(1 -1)" x="199.976" y="-435.171" class="E"><tspan x="199.976" y="-435.171">≈</tspan></text><g class="C"><text transform="scale(1 -1)" x="206.562" y="-435.171"><tspan x="206.562 210.547 216.748" y="-435.171">1mm</tspan><tspan x="243.961 247.946 254.72 257.821 261.36 265.345 268.445" y="-462.07">11seqs,</tspan><tspan x="243.961 247.946 249.938 255.254 259.24" y="-453.103">0.9km</tspan><tspan x="-204.943 -200.512 -196.973 -192.988 -189.003 -183.687 -177.933 -173.501 -167.747 -161.992 -159.338" y="-422.618">PennCOSYVIO</tspan><tspan x="-204.943 -202.289 -198.304 -194.319" y="-413.651">[12]</tspan><tspan x="-136.295 -132.31 -128.325 -124.34" y="-422.618">2017</tspan></text><text transform="scale(1 -1)" x="-108.4" y="-422.618" class="B"><tspan x="-108.4 -106.185 -101.753" y="-422.618">in-</tspan><tspan x="-108.4 -106.185 -102.199 -97.768 -95.114 -90.683 -86.698 -82.713 -79.174" y="-413.651">/outdoors</tspan></text><text transform="scale(1 -1)" x="-62.429" y="-422.618"><tspan x="-62.429 -58.444 -54.905 -50.92 -46.935 -42.95 -39.412 -37.196 -22.124 -15.35 -10.034 -4.279 3.826 7.811 11.796 15.781 19.766 23.751 27.737 31.722 35.707" y="-422.618">handheld4RGB1920x1080</tspan><tspan x="-22.127 -14.787 -10.802 -6.817 -1.062 5.266 7.92 10.574 14.559 16.775 18.991 21.206 25.191" y="-413.651">@30Hz(rolling</tspan><tspan x="-22.127 -19.027 -15.042 -11.057 -8.841 -6.625 -3.087 -0.433 2.221 7.003" y="-404.685">shutter),1</tspan></text><text transform="scale(1 -1)" x="13.778" y="-404.685"><tspan x="13.778 16.878 19.532 23.071 26.466 30.005" y="-404.685" class="B">stereo</tspan></text><text transform="scale(1 -1)" x="-22.127" y="-395.719"><tspan x="-22.127 -18.142 -15.488 -11.949 -5.175 -1.19 2.795 6.78 10.765 14.75 18.735 22.721 26.706" y="-395.719">gray2x752x480</tspan><tspan x="-22.127 -14.787 -10.802 -6.817 -1.062 2.476 7.259 14.033 18.465 21.565 25.55 28.969 32.954" y="-386.752">@20Hz,1fsheye</tspan><tspan x="-22.127 -18.142 -15.488 -11.949 -5.175 -1.19 2.795 6.78 10.765 14.75 18.735" y="-377.786">gray640x480</tspan><tspan x="-22.127 -14.787 -10.802 -6.817 -1.062" y="-368.819">@30Hz</tspan><tspan x="52.19 57.944 63.699 66.353 70.784 74.769 78.754 82.739 86.724 93.499 97.484" y="-422.618">ADIS164883-</tspan><tspan x="52.19 55.729 59.714 61.929 67.819 71.358 74.897 78.435 80.651 84.636 88.621 91.275" y="-413.651">axisacc/gyro</tspan><tspan x="52.19 59.53 63.515 67.5 71.485 77.24 80.779 85.561 89.793 93.331 97.317 101.302" y="-404.685">@200Hz,Tango</tspan><tspan x="52.19 56.175 58.829 62.368 66.353 68.568 74.458 77.997 81.536" y="-395.719">3-axisacc</tspan><tspan x="52.19 59.53 63.515 67.5 71.485 77.24 83.568 88.573 92.558 95.212 98.751 102.736 104.952" y="-386.752">@128Hz/3-axis</tspan><tspan x="52.19 56.175 60.16 62.814 69.589 76.929 80.914 84.899 88.884 94.639" y="-377.786">gyro@100Hz</tspan></text><text transform="scale(1 -1)" x="120.838" y="-422.618"><tspan x="120.838 125.269" y="-422.618" class="B">hw</tspan></text><text transform="scale(1 -1)" x="120.838" y="-413.651"><tspan x="120.838 123.492 126.592 128.808 132.347 135.001 138.539" y="-413.651">(stereo</tspan><tspan x="120.838 124.823 127.477 131.016 135.001" y="-404.685">gray/</tspan><tspan x="120.838 126.592 132.347 135.001 139.432 142.086" y="-395.719">ADIS),</tspan><tspan x="120.838 123.938" y="-386.752">sw</tspan><tspan x="155.471 159.902 163.887 167.872 171.411 173.627 177.165 182.171 188.371 191.91 194.564 198.469 202.008 204.662" y="-422.618">fducialmarkers</tspan><tspan x="155.471 159.456 163.441 166.541 170.08 177.42 181.406 185.391 191.145 194.684" y="-413.651">pose@30Hz,</tspan><tspan x="155.471 159.01 162.548" y="-404.685">acc</tspan></text></g><text transform="scale(1 -1)" x="166.087" y="-404.685" class="E"><tspan x="166.087" y="-404.685">≈</tspan></text><g class="C"><text transform="scale(1 -1)" x="172.673" y="-404.685"><tspan x="172.673 176.658 180.643 184.182" y="-404.685">15cm</tspan><tspan x="243.961 250.735 253.836 257.374 261.36 264.46" y="-422.618">4seqs,</tspan><tspan x="243.961 247.946 249.938 255.254 259.24" y="-413.651">0.6km</tspan><tspan x="-204.943 -200.073 -196.088 -193.434 -191.219 -187.68 -180.905 -175.151 -172.497 -168.512 -164.973" y="-356.267">ZurichUrban</tspan><tspan x="-204.943 -197.858 -193.179 -184.635 -181.981 -177.996 -174.011" y="-347.3">MAV[13]</tspan><tspan x="-136.295 -132.31 -128.325 -124.34 -108.4 -104.415 -100.43 -98.214 -94.229 -90.244 -86.259 -83.605 -62.428 -55.343 -50.664 -22.124 -15.349 -10.033 -4.278 3.827 7.812 11.797 15.782 19.767 23.752 27.737 31.722 35.708" y="-356.267">2017outdoorsMAV1RGB1920x1080</tspan><tspan x="-22.127 -14.787 -10.802 -6.817 -1.062 5.266 7.92 10.574 14.559 16.775 18.991 21.206 25.191" y="-347.3">@30Hz(rolling</tspan><tspan x="-22.127 -19.027 -15.042 -11.057 -8.841 -6.625 -3.087 -0.433" y="-338.334">shutter)</tspan><tspan x="52.19 56.175 58.829 62.368 66.353 68.568 74.458 77.997 81.536 85.074 87.29 91.275 95.26 97.914" y="-356.267">3-axisacc/gyro</tspan><tspan x="52.19 59.53 63.515 67.5 73.255" y="-347.3">@10Hz</tspan><tspan x="120.838 123.938 155.468 159.899 162.115 166.1 170.085 178.629 182.614 184.83 187.93 191.915 195.454 200.459 204.444 208.429 211.53 215.068 219.85 223.389 226.928" y="-356.267">swPix4Dvisualpose,acc</tspan><tspan x="155.471 159.456 163.441 167.426 171.411 175.197 180.951" y="-347.3">unknown</tspan><tspan x="243.961 250.735 253.836 257.374 261.36 266.142 271.458 275.443" y="-356.267">1seq,2km</tspan></text><text transform="scale(1 -1)" x="-204.943" y="-325.781"><tspan x="-204.943 -198.742 -194.311 -190.772 -184.683 -182.029 -176.713 -170.959 -160.446 -154.692 -151.591" y="-325.781">Ours(TUMVI)</tspan></text><text transform="scale(1 -1)" x="-136.295" y="-325.781"><tspan x="-136.295 -132.31 -128.325 -124.34" y="-325.781">2018</tspan></text><text transform="scale(1 -1)" x="-108.4" y="-325.781" class="B"><tspan x="-108.4 -106.185 -101.753" y="-325.781">in-</tspan><tspan x="-108.4 -106.185 -102.199 -97.768 -95.114 -90.683 -86.698 -82.713 -79.174" y="-316.815">/outdoors</tspan></text><text transform="scale(1 -1)" x="-62.429" y="-325.781"><tspan x="-62.429 -58.444 -54.905 -50.92 -46.935 -42.95 -39.412 -37.196 -22.124" y="-325.781">handheld1</tspan></text><text transform="scale(1 -1)" x="-15.352" y="-325.781"><tspan x="-15.352 -12.252 -9.598 -6.059 -2.664 0.875" y="-325.781" class="B">stereo</tspan></text><text transform="scale(1 -1)" x="7.649" y="-325.781"><tspan x="7.649 11.634 14.288 17.827" y="-325.781">gray</tspan><tspan x="-22.127 -18.142 -14.157 -10.172 -6.187 -2.202 1.783 5.768 9.753 13.738 17.723" y="-316.815">2x1024x1024</tspan><tspan x="-22.127 -14.787 -10.802 -6.817 -1.062" y="-307.848">@20Hz</tspan><tspan x="52.19 57.506 64.591 67.245 71.23 75.215 81.99 85.975" y="-325.781">BMI1603-</tspan><tspan x="52.19 55.729 59.714 61.929 67.819 71.358 74.897 78.435 80.651 84.636 88.621 91.275" y="-316.815">axisacc/gyro</tspan><tspan x="52.19 59.53 63.515 67.5 71.485 77.24" y="-307.848">@200Hz</tspan></text><text transform="scale(1 -1)" x="120.838" y="-325.781" class="B"><tspan x="120.838 125.269 155.468 159.899 163.884 167.423 170.077 172.293 176.278 181.482 188.121 192.106 194.76 196.976 200.961" y="-325.781">hwpartialmotion</tspan><tspan x="155.471 159.01 162.995 167.426 170.08 174.511 177.907 184.434 188.865 192.851 195.951" y="-316.815">capturepose</tspan><tspan x="155.471 162.883 166.868 170.853 174.838 181.039" y="-307.848">@120Hz</tspan></text><text transform="scale(1 -1)" x="184.577" y="-307.848"><tspan x="184.577 189.359 195.56 199.098 201.752 205.658 209.196 214.64 218.625 222.61" y="-307.848">,markerpos</tspan><tspan x="155.471 159.01 162.548" y="-298.882">acc</tspan></text></g><text transform="scale(1 -1)" x="166.087" y="-298.882" class="E"><tspan x="166.087" y="-298.882">≈</tspan></text><text transform="scale(1 -1)" x="172.673" y="-298.882" class="C"><tspan x="172.673 176.658 182.859 191.849 194.503 197.603 199.819 203.358 205.573 207.789 214.117 217.656 221.195 224.295 227.834" y="-298.882">1mm(staticcase)</tspan><tspan x="243.961 247.946 254.72 257.821 261.36 265.345 268.445" y="-325.781">28seqs,</tspan><tspan x="243.961 247.946 253.262 257.247 263.448" y="-316.815">20km,</tspan></text><text transform="scale(1 -1)" x="243.961" y="-307.848" class="B C"><tspan x="243.961 248.392 252.824 256.809 259.463 263.448 270.087 273.625 276.28 279.818 282.034" y="-307.848">photometric</tspan><tspan x="243.961 247.5 251.485 253.7 255.916 260.347 263.886 267.871 270.525 272.741 276.726" y="-298.882">calibration</tspan></text></g><path d="M-210.92 292.92h498.96" class="F G H"/></g></g><defs/></svg>
